<svg width="51" height="50" viewBox="0 0 51 50" fill="none" xmlns="http://www.w3.org/2000/svg">
<g opacity="0.5">
<path opacity="0.5" d="M11.8654 2.74487L11.8109 2.77274C10.0295 3.7076 8.42809 4.9514 7.08059 6.4466C4.48569 9.2664 2.61329 13.1322 1.66489 17.5662C0.764263 21.9255 0.745063 26.4245 1.60839 30.7973C2.01029 32.8984 2.64209 34.9493 3.49249 36.9128C4.31819 38.8783 5.39649 40.7278 6.70019 42.4143C7.35789 43.2596 8.07839 44.054 8.85539 44.7907C9.63769 45.5146 10.4763 46.1749 11.3631 46.7653C13.1291 47.9371 15.0886 48.784 17.1493 49.2661C18.6185 49.5938 20.1146 49.7833 21.618 49.832C23.3287 49.9024 25.0417 49.8084 26.7335 49.5511C28.4497 49.3051 30.142 48.9154 31.7924 48.3863C33.436 47.8503 35.0373 47.193 36.5833 46.42L37.089 46.1618C39.3383 45.0027 41.477 43.6403 43.4785 42.0916C44.5774 41.2504 45.6669 40.334 46.7184 39.3788C47.7432 38.4867 48.6826 37.5005 49.5242 36.4331C49.65 36.2976 49.7401 36.1329 49.7865 35.9537C49.8211 35.8142 49.8272 35.669 49.8044 35.5269C49.7816 35.3848 49.7304 35.2486 49.6539 35.1266C49.6445 35.1012 49.6322 35.077 49.6171 35.0545C49.8087 34.9596 49.9664 34.808 50.069 34.6201C50.1783 34.4199 50.2259 34.1915 50.2056 33.9637C50.1853 33.736 50.0981 33.5192 49.955 33.3407C49.8119 33.1622 49.6194 33.0301 49.4017 32.9612C49.1841 32.8922 48.9512 32.8894 48.7324 32.9531C47.8263 33.1576 46.8899 33.3666 45.9385 33.5178C43.9851 33.7802 42.0063 33.8039 40.0455 33.5883C37.9053 33.3044 35.8058 32.7647 33.7919 31.9808C29.2996 30.1994 25.3326 27.2971 22.2684 23.55C20.8818 21.8399 19.7106 19.9655 18.7813 17.9694C18.0095 16.2034 17.4592 14.3489 17.1428 12.4485C16.9049 10.7386 16.8719 9.007 17.0444 7.2907C17.2124 5.9558 17.5016 4.6394 17.9083 3.358C17.9466 3.2329 17.9619 3.1019 17.9535 2.97121L18.017 2.96788L18.0819 2.9602C18.2464 2.9466 18.407 2.90283 18.5556 2.83105C18.6545 2.78284 18.7434 2.71645 18.8178 2.63532C18.9109 2.53725 18.9837 2.42164 19.032 2.29514C19.0803 2.16864 19.1031 2.03375 19.0991 1.8982C19.0952 1.76264 19.0646 1.62911 19.0091 1.50528C18.9536 1.38145 18.8742 1.26976 18.7756 1.17662C18.6806 1.08267 18.5676 1.0089 18.4436 0.959755C18.3195 0.910595 18.1869 0.887075 18.0537 0.890605C16.942 1.01901 15.8432 1.23951 14.7684 1.54982C13.7707 1.85546 12.8024 2.25005 11.8754 2.72888L11.8654 2.74487ZM14.2718 8.6773L14.1624 8.5623C13.7666 8.1602 13.332 7.7986 12.865 7.4827C12.1875 6.9957 11.3724 6.7399 10.5402 6.7531C10.1895 6.7674 9.84409 6.8417 9.51879 6.9728C9.81489 6.7016 10.0867 6.4536 10.3587 6.2274C11.217 5.5434 12.1427 4.9489 13.1216 4.4529C13.314 4.3547 13.5065 4.2564 13.6961 4.1596C14.1447 3.9669 14.5977 3.7974 15.0453 3.6525C14.5974 5.2927 14.3383 6.9796 14.2733 8.6802L14.2718 8.6773ZM12.2342 12.4892L12.082 12.5669C11.8298 12.6694 11.5693 12.7501 11.3033 12.8081C11.1843 12.8183 11.0647 12.821 10.9453 12.8164C10.8867 12.8055 10.8287 12.7914 10.7716 12.7741L10.6613 12.7141C10.6169 12.6761 10.5746 12.6358 10.5344 12.5934C10.4858 12.4982 10.42 12.4118 10.367 12.3152C10.3015 12.1315 10.248 11.9438 10.2068 11.7532C10.1787 11.4737 10.1744 11.1924 10.194 10.9124C10.2286 10.6946 10.2815 10.4802 10.3521 10.2715C10.4032 10.1605 10.4604 10.0523 10.5235 9.9476L10.6306 9.83111L10.6708 9.8105L10.7516 9.8056C10.8182 9.8226 10.8877 9.838 10.9544 9.8622C11.1283 9.9411 11.2962 10.0328 11.4567 10.1366C11.899 10.4954 12.3046 10.8975 12.6672 11.337C12.7389 11.4277 12.8106 11.5184 12.872 11.5961C12.9608 11.7155 13.06 11.8267 13.1685 11.9285C12.8428 12.1348 12.5357 12.3134 12.2283 12.4704L12.2342 12.4892ZM13.5783 14.9015C13.6559 14.8619 13.7363 14.8208 13.8139 14.7812C14.1364 14.5802 14.4452 14.3581 14.7384 14.1164C14.8282 14.5688 14.9368 15.0226 15.064 15.4631C14.5945 15.1991 14.0831 15.0184 13.5526 14.9292L13.59 14.9101L13.5783 14.9015ZM12.8506 23.8674C12.7138 23.9183 12.5733 23.9585 12.4302 23.9875C12.2657 24.0042 12.1001 24.0073 11.9351 23.9966C11.7466 23.9652 11.5611 23.9175 11.3806 23.8542C11.1545 23.7579 10.9386 23.6391 10.736 23.4996C10.514 23.3234 10.3077 23.1282 10.1193 22.9162C9.68739 22.3902 9.40639 21.7566 9.30659 21.0835C9.26519 20.7454 9.25839 20.404 9.28619 20.0647C9.33999 19.6768 9.43439 19.2958 9.56779 18.928L9.59159 18.8613C9.77739 18.8307 9.95709 18.7708 10.1241 18.6839L10.6814 18.3994C11.0939 18.2326 11.5214 18.1056 11.9582 18.0201C12.2472 17.9893 12.5384 17.9829 12.8287 18.0012C13.041 18.038 13.2505 18.0903 13.4554 18.1576C13.6071 18.2268 13.7541 18.306 13.8953 18.3949C14.006 18.4911 14.1124 18.5931 14.2175 18.6995C14.3155 18.8412 14.4052 18.9885 14.4862 19.1406C14.5546 19.3244 14.6087 19.5133 14.6478 19.7054C14.6786 20.0104 14.6827 20.3175 14.66 20.623C14.5797 21.128 14.4538 21.6244 14.2838 22.1062C14.1412 22.4448 13.9691 22.77 13.7695 23.0781C13.6275 23.2583 13.4714 23.4268 13.3025 23.582C13.1614 23.6876 13.0116 23.7811 12.8549 23.8615L12.8506 23.8674ZM6.99949 35.6239C6.93059 35.6591 6.84979 35.6713 6.77489 35.6877C6.67409 35.6956 6.57269 35.6963 6.47169 35.6897L6.41679 35.6814L6.35749 35.6717C6.08969 35.6117 5.81069 35.6281 5.55229 35.7192C5.03479 34.4755 4.60169 33.1984 4.25599 31.8967C4.55989 31.9749 4.88189 31.9306 5.15279 31.7734L5.23039 31.7338C5.60349 31.5793 5.99049 31.4609 6.38619 31.38C6.58129 31.3593 6.77779 31.3551 6.97369 31.3673C7.08219 31.3883 7.19359 31.415 7.30369 31.4461C7.41369 31.4772 7.44449 31.5233 7.51279 31.5648C7.58429 31.6257 7.65239 31.6905 7.71689 31.7588C7.79309 31.8656 7.86129 31.9778 7.92099 32.0947C7.99699 32.2959 8.05559 32.5032 8.09619 32.7144C8.12969 33.0202 8.13429 33.3284 8.10989 33.6349C8.06329 33.9376 7.98999 34.2355 7.89079 34.5251C7.79829 34.7361 7.68879 34.9392 7.56339 35.1323C7.47099 35.2447 7.37179 35.3512 7.26629 35.4513C7.17729 35.4968 7.09849 35.5624 7.01089 35.6108L6.99949 35.6239ZM9.66069 42.0554C9.32939 41.7045 9.00809 41.3449 8.71429 40.9893C8.06149 40.1659 7.46609 39.2985 6.93229 38.3933C7.23869 38.3761 7.54049 38.3116 7.82699 38.2019C7.96809 38.4705 8.19739 38.6821 8.47599 38.8011C8.75459 38.92 9.06519 38.9388 9.35539 38.8544C9.78699 38.7271 10.2256 38.6246 10.6691 38.5473C11.0762 38.4951 11.4874 38.4812 11.8973 38.5057C12.0667 38.5288 12.2341 38.5649 12.398 38.6137C12.4619 38.6466 12.5214 38.678 12.5838 38.7152C12.6038 38.7323 12.6228 38.7505 12.6407 38.7698L12.6643 38.816C12.6692 38.8402 12.6709 38.865 12.6693 38.8897C12.6561 38.9667 12.6381 39.0427 12.6153 39.1174C12.5551 39.2453 12.4864 39.3691 12.4097 39.4878C12.2268 39.7134 12.0245 39.9225 11.8053 40.1129C11.3954 40.4203 10.9589 40.6907 10.5011 40.9207L10.2741 41.0366C10.0824 41.1541 9.92479 41.3198 9.81699 41.5174C9.72709 41.6834 9.67379 41.8668 9.66069 42.0554ZM21.4393 47.1628C20.7921 47.1295 20.1392 47.0992 19.4757 47.0198C18.091 46.8497 16.7301 46.5195 15.4201 46.0357C14.2088 45.5399 13.0573 44.9078 11.9878 44.1514C11.6997 43.9348 11.4059 43.7211 11.1231 43.4581C11.1895 43.457 11.255 43.4433 11.3162 43.4178C11.6469 43.2852 11.9631 43.1456 12.2562 42.996L12.3596 42.9431C12.3808 43.1958 12.4609 43.4402 12.5935 43.6566C12.8232 44.0231 13.1839 44.2879 13.6016 44.3966L14.028 44.4443C14.2833 44.4419 14.5343 44.3797 14.7611 44.2628L14.8358 44.2246C15.4089 43.9993 16.0023 43.829 16.608 43.7161C17.1946 43.6509 17.7865 43.6434 18.375 43.6939C18.8408 43.7648 19.2992 43.879 19.7443 44.0349C20.0561 44.1717 20.3566 44.3332 20.6429 44.518C20.8314 44.6719 21.0087 44.839 21.1736 45.0181C21.2709 45.1551 21.3596 45.2981 21.4392 45.4461C21.4907 45.596 21.5347 45.7484 21.5709 45.9026C21.5848 46.1133 21.585 46.3246 21.5716 46.5351C21.5391 46.7481 21.4921 46.9612 21.4452 47.1743L21.4393 47.1628ZM35.0973 38.1263C34.8028 38.2422 34.4989 38.3329 34.189 38.3974C33.9013 38.4263 33.6115 38.4307 33.3228 38.4105C32.8757 38.3654 32.4486 38.2003 32.0864 37.9326C31.9135 37.7941 31.7521 37.6418 31.6039 37.477C31.4448 37.2602 31.3052 37.0296 31.1868 36.788C31.06 36.4563 30.9628 36.114 30.8964 35.7652C30.8374 35.2198 30.8333 34.6699 30.8841 34.124C30.8988 34.011 30.9179 33.8994 30.9355 33.7849C31.1343 33.8834 31.3374 33.9761 31.5448 34.0703C31.5458 34.0942 31.5494 34.118 31.5556 34.1411C31.7429 34.9946 32.1755 35.7752 32.7999 36.3862C33.077 36.646 33.4004 36.8511 33.7532 36.9906C34.2256 37.2092 34.7479 37.2957 35.2645 37.2408C35.4666 37.2358 35.6649 37.1855 35.8449 37.0936L35.9368 37.0466C36.2279 36.8641 36.4374 36.5761 36.522 36.2422C36.5607 36.0876 36.5708 35.9272 36.5519 35.7687C36.8544 35.8434 37.1641 35.9107 37.4751 35.9738L37.3143 36.1978C36.9709 36.6597 36.5814 37.0852 36.1519 37.4678C35.8468 37.7012 35.5212 37.9064 35.1792 38.0809L35.0973 38.1263Z" fill="#6b7280"/>
</g>
</svg>
